<svg xmlns="http://www.w3.org/2000/svg" width="83.942" height="57" xmlns:v="https://vecta.io/nano"><defs><clipPath id="A"><path d="M2576.49 3912.24h2420.97V2200.42H2576.49z"/></clipPath></defs><g clip-path="url(#A)" transform="matrix(.046622 0 0 -.046622 -134.586548 169.100597)" fill="#982824"><path d="M4440.95 3389.29l111.94 1.48-91.47-481.19h225.79l-27.19-139.26h-334.57c-37.89 0-56.85 21.42-49.44 57.68l90.53 465.72m-1208.7-259.94h113.73l-11.54 229.09zm-14 296.66c31.31 64.27 85.7 93.11 144.2 93.11 60.16 0 107.13-29.66 112.9-93.11l34.16-391.04-105.08-137.17h-51.86l-4.13 93.94h-171.39l-41.21-93.94h-174.69l257.1 528.21"/><path d="M3994.26 3627.03h178.34l-922.2-1222.59h-179.28l923.14 1222.59m43.62-234.4l43.21-181.65 134.88 181.65H4405l-269.42-362.73-41.42-262.31h-167.18l49.56 257.91-66.67 200.95 128.01 166.18m-576.48-3.34h186.7l44.8-108.41-120.9-159.9-110.6 268.31m322.15-327.85l-122.04-158.92 56.44-134.93h187.2l-121.6 293.85"/></g></svg>